<?xml version="1.0" encoding="utf-8"?>
<!-- Generator: Adobe Illustrator 24.0.0, SVG Export Plug-In . SVG Version: 6.00 Build 0)  -->
<svg version="1.1" id="Layer_1" xmlns="http://www.w3.org/2000/svg" xmlns:xlink="http://www.w3.org/1999/xlink" x="0px" y="0px"
	 viewBox="0 0 149.28 170.08" style="enable-background:new 0 0 149.28 170.08;" xml:space="preserve">
<g>
	<path d="M32.56,72.67c0.46,0.43,2.59,2.55,4.61,6.04c2.02,3.49,3.91,8.33,3.91,14.24c0,4.91-1.3,10.56-4.96,16.81l-0.15,0.26
		l4.31,7.07l0.4-0.17l0.08-0.03c0.38-0.15,2.15-0.78,4.21-0.78c1.55,0,3.26,0.35,4.74,1.49c1.47,1.14,2.76,3.08,3.42,6.41l0.05,0.25
		l0.23,0.11c1.24,0.56,2.01,0.92,2.46,1.13c0.23,0.11,0.38,0.18,0.47,0.22c0.09,0.04,0.12,0.06,0.12,0.06l0.28,0.14l0.25-0.2
		l0.02-0.02c0.28-0.21,2.98-2.14,7.3-2.14c2.69,0,6.03,0.74,9.84,3.15l0.3,0.19l0.28-0.22c4.25-3.4,8.07-4.32,11.01-4.32
		c1.83,0,3.33,0.36,4.36,0.72c0.52,0.18,0.92,0.36,1.18,0.49c0.13,0.07,0.23,0.12,0.3,0.16l0.07,0.04l0.02,0.01l0.27,0.17l0.27-0.17
		l0.12-0.07c0.26-0.16,1-0.62,2.76-1.67l0.22-0.13l0.02-0.26c0.32-3.85,1.65-6,3.26-7.24c1.61-1.24,3.57-1.58,5.2-1.58
		c0.89,0,1.68,0.1,2.24,0.2c0.28,0.05,0.5,0.1,0.66,0.14l0.17,0.04l0.05,0.01l0.41,0.12l3.49-7.5l-0.18-0.24
		c-5.25-7.05-6.96-13.61-6.96-19.21c0-5.43,1.62-9.97,3.24-13.16c0.81-1.59,1.62-2.85,2.23-3.7c0.3-0.43,0.55-0.75,0.73-0.97
		c0.09-0.11,0.16-0.19,0.2-0.24l0.07-0.08l0.22-0.25l-2.21-4.46l-0.37,0.07l-0.01,0c-0.06,0.01-0.4,0.06-0.94,0.06
		c-1.98-0.01-6.65-0.63-10.79-6.3l-0.14-0.19l-0.24-0.01c-5.1-0.27-5.1-0.27-5.1-0.27l-0.28-0.01l-0.16,0.23l-0.05,0.07
		c-0.27,0.38-1.62,2.19-3.77,3.88c-2.14,1.69-5.06,3.26-8.49,3.26c-1.86,0-3.88-0.46-6.05-1.63c1.99-0.16,5.63-0.68,8.39-2.38
		c2.64-2.57,4.55-11.62,4.55-11.62l-2.98,1.17l-2.54-2.45l-3.82,2.35l-4.32-2.55v-3.82h2.03c0.55,0,1-0.45,1-1s-0.45-1-1-1h-2.03
		v-2.27h3.7c0.55,0,1-0.45,1-1s-0.45-1-1-1h-3.7v-2.55c0-0.55-0.45-1-1-1s-1,0.45-1,1v2.55h-3.7c-0.55,0-1,0.45-1,1s0.45,1,1,1h3.7
		v2.27h-1.8c-0.55,0-1,0.45-1,1s0.45,1,1,1h1.8v3.95l-3.79,2.42l-3.82-2.35l-2.54,2.45l-2.98-1.17c0,0,1.91,9.05,4.55,11.62
		c3.47,2.14,8.31,2.41,9.55,2.45c-2.51,1.75-4.91,2.4-7.14,2.4c-3.32,0-6.27-1.45-8.39-2.93c-1.06-0.74-1.91-1.48-2.49-2.03
		c-0.29-0.28-0.51-0.51-0.67-0.66l-0.17-0.18l-0.05-0.06l-0.18-0.21l-0.28,0.05c0,0,0,0-5.04,0.84L45.38,60l-0.12,0.21
		c-2.06,3.61-4.51,5.47-6.56,6.45c-2.06,0.98-3.74,1.06-4.25,1.06l-0.13,0l-0.03,0l-0.38-0.02l-1.7,4.68l0.25,0.23L32.56,72.67z
		 M46,60.91c2.97-0.49,4.12-0.69,4.55-0.76c0.43,0.47,1.62,1.67,3.37,2.89c2.22,1.54,5.34,3.11,8.96,3.11
		c2.52,0,5.26-0.78,8.03-2.81c2.44,1.4,4.78,1.97,6.92,1.97c3.99,0,7.27-1.93,9.54-3.83c1.83-1.53,3.01-3.03,3.42-3.58
		c0.09,0,0.21,0.01,0.37,0.02c0.62,0.03,1.84,0.1,4.24,0.23c4.3,5.77,9.28,6.53,11.45,6.52c0.31,0,0.56-0.02,0.74-0.03l1.59,3.21
		c-1.12,1.37-6.49,8.43-6.49,18.55c0,5.74,1.76,12.45,6.99,19.56l-2.89,6.2c-0.56-0.13-1.65-0.33-2.99-0.33
		c-1.76,0-3.95,0.36-5.81,1.79c-1.82,1.39-3.24,3.81-3.61,7.69c-1.4,0.84-2.11,1.27-2.44,1.48c-0.75-0.4-2.99-1.41-6.18-1.41
		c-3.09,0-7.06,0.97-11.36,4.33c-3.83-2.35-7.27-3.13-10.07-3.13c-4.12,0-6.86,1.63-7.68,2.18c-0.35-0.17-1.11-0.52-2.59-1.2
		c-0.7-3.34-2.08-5.48-3.73-6.75c-1.7-1.31-3.65-1.7-5.35-1.69c-1.92,0-3.55,0.49-4.27,0.74L37.13,110
		c3.62-6.28,4.95-12.03,4.95-17.05c0-6.54-2.23-11.81-4.46-15.44c-1.82-2.96-3.61-4.82-4.23-5.43l1.22-3.37
		c0.73-0.02,2.44-0.17,4.52-1.15C41.31,66.52,43.87,64.55,46,60.91z M57.43,50.9c0,0,2.84,0.16,5.67,0.55
		c2.84,0.39,5.35-2.77,7.04-2.77s3.23,3.16,6.06,2.77c2.84-0.39,5.67-0.55,5.67-0.55c-1.76,2.87-3.52,4.53-6.42,4.53
		c-2.9,0-4.6-3.68-5.8-3.52c-1.21-0.16-2.9,3.52-5.8,3.52S59.2,53.77,57.43,50.9z M61.02,58.95h18.26
		c-2.92,1.15-5.05,2.89-8.64,2.89C67.05,61.84,63.24,60.57,61.02,58.95z"/>
	<path d="M35.93,70.43l-0.34,0.94l-0.1,0.28l0.2,0.22c2.63,2.99,8.2,10.6,8.19,21.19c0,4.94-1.2,10.54-4.49,16.66l-0.14,0.25
		l2.26,3.72l0.35-0.08c0.88-0.19,1.94-0.34,3.09-0.34c2.65,0,4.89,0.79,6.68,2.27c1.79,1.48,3.14,3.66,3.92,6.5l0.06,0.22l0.21,0.1
		c0.16,0.07,0.31,0.14,0.45,0.21l0.23,0.1l0.22-0.12c1.52-0.81,4.12-1.82,7.58-1.82c3.2,0,6.44,0.87,9.68,2.61l0.27,0.15l0.25-0.17
		c3.64-2.52,7.4-3.78,11.23-3.78c2.53,0,4.54,0.57,5.83,1.08l0.23,0.09l0.21-0.13c0.13-0.08,0.27-0.16,0.42-0.25l0.2-0.12l0.04-0.23
		c0.71-4.56,2.74-6.99,4.95-8.35c2.22-1.36,4.67-1.62,6.16-1.62c0.56,0,1.09,0.03,1.57,0.08l0.35,0.04l1.84-3.95l-0.16-0.24
		c-4.87-7.06-6.5-13.67-6.5-19.41c0-8.9,3.95-15.71,5.98-18.62l0.17-0.24l-0.57-1.15l-0.29-0.02c-2.46-0.15-7.27-1.13-11.58-6.38
		l-0.14-0.17l-2.8-0.15l-0.16,0.19c-1.01,1.19-2.75,2.99-5.07,4.49c-2.33,1.5-5.23,2.69-8.58,2.69c-2.2,0-4.39-0.51-6.55-1.54
		l-0.25-0.12l-0.23,0.14c-2.52,1.56-5.17,2.34-7.92,2.34h0h0c-5.93,0.01-10.71-3.73-12.79-5.7l-0.18-0.17l-2.77,0.46l-0.12,0.18
		c-3.65,5.61-8.22,7.17-10.8,7.62L35.93,70.43z M47.73,63.49l1.86-0.31c2.25,2.08,7.08,5.78,13.26,5.8l0.02,0h0.02h0h0
		c2.86,0,5.62-0.8,8.22-2.36c2.2,1.01,4.46,1.53,6.73,1.53c3.6,0,6.69-1.27,9.12-2.84c2.32-1.5,4.06-3.26,5.13-4.49l1.88,0.1
		c4.32,5.15,9.17,6.34,11.85,6.55l0.06,0.11c-2.14,3.12-5.99,9.98-5.99,18.95c0,5.86,1.67,12.62,6.52,19.74l-1.3,2.8
		c-0.41-0.03-0.84-0.06-1.31-0.06c-1.6,0-4.23,0.27-6.69,1.77c-2.41,1.47-4.6,4.18-5.37,8.82c-0.01,0.01-0.02,0.01-0.03,0.02
		c-1.39-0.52-3.42-1.06-5.96-1.06c-3.96,0-7.85,1.29-11.54,3.79c-3.27-1.72-6.6-2.6-9.89-2.6c-3.5,0-6.17,0.98-7.82,1.83
		c-0.01,0-0.02-0.01-0.03-0.01c-0.84-2.88-2.25-5.19-4.18-6.78c-1.98-1.63-4.47-2.5-7.32-2.5c-1.09,0-2.09,0.13-2.95,0.3l-1.61-2.64
		c3.26-6.15,4.48-11.84,4.48-16.87c0-10.71-5.47-18.4-8.25-21.63l0.05-0.12C39.46,70.78,44.06,69.02,47.73,63.49z"/>
	<path d="M130,97.8c-3.02,2.17-6.83,5.45-8.29,6.71l-3.12-11.75l-0.51,1.68c-1.19,3.91-2.94,8.31-4.87,12.16
		c-1.62,3.24-3.4,6.09-5.06,7.94l-0.83-0.55l-0.28,0.42l-0.02,0.03c-0.55,0.79-10.22,14.33-32.56,16.42
		c-11.58-0.01-20.07-3.35-25.68-6.69c-2.8-1.67-4.88-3.34-6.26-4.59c-0.69-0.62-1.2-1.14-1.54-1.5c-0.17-0.18-0.29-0.32-0.38-0.42
		l-0.09-0.11l-0.03-0.03l-0.31-0.39l-0.77,0.63c-1.82-1.69-3.85-4.36-5.77-7.44c-2.28-3.65-4.42-7.87-5.98-11.65L27,97.06
		l-0.29,1.73l-1.72,10.26c-1.57-1.13-5.67-4.03-8.88-5.91l-0.87-0.51l0.12,1c0.47,3.89,3.08,8.54,6.18,12.9
		c3.1,4.36,6.71,8.41,9.22,10.97l0.29,0.3l0.35-0.24c0,0,0.44-0.3,1.12-0.81c14.1,13.95,31.18,16.24,42.49,16.24h0.02l0.02,0
		c11.26-1.05,28.05-4.95,40.79-20.15c0.73,0.44,1.19,0.69,1.19,0.7l0.37,0.21l0.27-0.33c2.26-2.78,5.48-7.15,8.16-11.78
		c2.68-4.63,4.85-9.5,4.95-13.42l0.02-1L130,97.8z M124.98,111.13c-2.55,4.39-5.59,8.56-7.81,11.32c-0.17-0.1-0.4-0.23-0.68-0.4
		c0.23-0.29,0.46-0.57,0.69-0.86l0.33-0.42l-8.52-5.67c1.73-1.97,3.49-4.82,5.11-8.05c1.7-3.39,3.23-7.17,4.4-10.71l2.66,9.99
		l0.61-0.54c0,0,0.32-0.28,0.85-0.74c1.44-1.25,4.45-3.82,7.08-5.79C129.29,102.69,127.37,107.01,124.98,111.13z M114.99,122.31
		c-12.49,14.82-28.89,18.64-40,19.68c-11.16-0.01-27.84-2.26-41.65-15.85c-0.12-0.12-0.24-0.24-0.36-0.35
		c-0.12-0.12-0.23-0.24-0.35-0.36c-0.16-0.16-0.32-0.32-0.48-0.49l7.24-5.86l0.16-0.13l0.21-0.17l0.03-0.03l0.27-0.22
		c0.14,0.16,0.34,0.37,0.58,0.61c3.08,3.14,14.09,12.71,33.86,12.71h0.02l0.02,0c19.68-1.84,29.76-12.42,32.53-15.83
		c0.22-0.27,0.39-0.49,0.52-0.66l0.28,0.19l0.03,0.02l0.22,0.14l0.17,0.11l7.76,5.16c-0.14,0.18-0.28,0.36-0.43,0.53
		c-0.11,0.13-0.21,0.26-0.32,0.39C115.21,122.05,115.1,122.18,114.99,122.31z M31.18,126.48c-2.46-2.54-5.88-6.4-8.83-10.54
		c-2.77-3.88-5.08-8-5.81-11.38c1.76,1.08,3.69,2.37,5.27,3.47c0.93,0.65,1.74,1.22,2.32,1.63c0.57,0.41,0.91,0.66,0.91,0.66
		l0.65,0.48l1.71-10.2c1.5,3.42,3.37,7.03,5.38,10.25c1.92,3.07,3.93,5.75,5.84,7.54l-7.96,6.44l0.37,0.39
		c0.26,0.27,0.51,0.53,0.77,0.79C31.56,126.21,31.35,126.37,31.18,126.48z"/>
	<path d="M51.31,103.99c-0.19,0.27-0.36,0.51-0.49,0.68c-0.13,0.17-0.21,0.28-0.21,0.28l-0.86,1.1l1.37-0.31
		c0.63-0.14,1.7-0.25,2.98-0.32c1.08-0.06,2.33-0.09,3.64-0.1c-0.7,1.8-1.45,3.22-2.01,4.26l-0.91,1.68l4.41-2.78l2.1,2.71
		l1.89-2.15c0.57,0.33,1.76,1.02,3.25,1.76l1.42,0.71l-0.75-1.39c-0.53-0.97-1-2.65-1.39-4.64c0.3,0.01,0.59,0.03,0.87,0.04h0
		c0.97,0.05,2.66,0.18,4.71,0.27c0.35,0.88,0.58,1.68,0.83,2.39l0.69,1.91l0.27-2.02c0.05-0.41,0.21-1.19,0.45-2.21
		c0.61,0.01,1.22,0.02,1.87,0.02c1.42,0,2.91-0.05,4.39-0.14c0,0.26,0.01,0.53,0.01,0.79c0,1.19-0.03,2.25-0.08,3.1
		c-0.05,0.85-0.14,1.5-0.23,1.81l-0.73,2.53l1.61-2.09c0.73-0.95,1.25-1.61,1.57-2.03c0.04-0.05,0.07-0.09,0.11-0.14l2.09,2.35
		l0.33-0.64c0.01-0.02,0.21-0.39,0.58-0.73c0.37-0.34,0.86-0.65,1.51-0.65c0.36,0,0.79,0.09,1.3,0.36l1.81,0.95l-1.17-1.68
		c-0.9-1.29-1.62-2.99-2.19-4.9c1.97-0.51,3.73-1.22,5.06-2.28c1.44-1.14,2.36-2.74,2.36-4.75c0.01-2.04-0.79-3.74-2.45-4.91
		c-1.58-1.13-3.87-1.82-6.98-2.21c-0.08-1.96-0.12-3.85-0.12-5.59c3.22,0.56,6.07,1.37,7.66,2.43l0.57,0.38l0.19-0.66
		c0.22-0.8,0.52-1.68,0.92-2.34c0.2-0.33,0.42-0.6,0.64-0.79c0.23-0.18,0.46-0.28,0.72-0.31l1.48-0.12l-1.25-0.8
		c-0.85-0.53-1.28-1.64-1.28-2.52c0-0.27,0.04-0.51,0.1-0.68c0.06-0.18,0.15-0.28,0.21-0.32l-0.58-0.81
		c-0.46,0.33-1.42,0.69-3.01,0.95c-1.5,0.25-3.56,0.41-6.3,0.47c0.04-1.44,0.07-2.58,0.07-3.26c0-0.17,0-0.31-0.01-0.43
		c-0.01-0.12-0.01-0.21-0.04-0.33c-0.08-0.33-0.29-0.59-0.54-0.78c-0.37-0.29-0.85-0.46-1.38-0.58c-0.53-0.12-1.13-0.18-1.73-0.18
		c-0.85,0-1.72,0.11-2.46,0.35l-0.44,0.14l0.1,0.45c0.06,0.26,0.09,0.58,0.09,0.94c0,0.91-0.2,2.1-0.54,3.4
		c-3.41-0.3-7.37-0.72-11.22-0.72c-0.54,0-1.08,0.02-1.61,0.03c-0.32-1-0.59-1.91-0.78-2.64c-0.21-0.81-0.34-1.43-0.36-1.68
		l-0.01-0.07l-0.03-0.07c-0.13-0.28-0.31-0.35-0.46-0.42c-0.23-0.1-0.5-0.15-0.82-0.19c-0.32-0.04-0.69-0.06-1.1-0.06
		c-0.9,0-1.96,0.09-2.94,0.31c-0.98,0.22-1.88,0.54-2.49,1.11l-0.2,0.2l0.06,0.28c0.05,0.18,0.12,0.36,0.24,0.63
		c0.31,0.72,0.9,2.01,1.54,3.78c-0.97,0.34-1.89,0.76-2.72,1.3c-2.62,1.71-4.05,4.06-4.06,6.4c0,1.77,0.83,3.49,2.47,4.83
		c1.55,1.27,3.83,2.21,6.83,2.62c-0.04,1.31-0.15,2.53-0.32,3.67c-1.88-0.43-3.61-0.95-5.01-1.57c-1.54-0.68-2.71-1.49-3.35-2.41
		l-0.84,0.54c1.12,1.95,1.72,2.95,2.02,3.47c-0.67,0.29-1.08,0.56-1.34,0.81c-0.33,0.31-0.41,0.62-0.41,0.77l0,0.03l0.02,0.29
		l0.26,0.13l0.07,0.04c0.16,0.08,0.58,0.32,0.94,0.58c0.18,0.13,0.34,0.28,0.44,0.39l0.1,0.14l0.01,0.03c0,0.01-0.02,0.08-0.06,0.18
		C52.11,102.8,51.69,103.46,51.31,103.99z M51.75,100.41c0.24-0.18,0.66-0.42,1.38-0.68l0.59-0.22l-0.34-0.53l-0.01-0.02
		c-0.05-0.08-0.25-0.41-0.83-1.4c0.45,0.27,0.93,0.53,1.46,0.76c1.51,0.67,3.31,1.2,5.27,1.65c0.16,0.04,0.31,0.07,0.46,0.11
		c1.48,0.32,3.06,0.6,4.66,0.83h0c0,0,0,0,0.01,0c0.21,0.03,0.43,0.06,0.64,0.09c1.46,0.21,2.94,0.4,4.4,0.56
		c0.47,1.03,0.93,2.03,1.34,2.96c0.04,0.09,0.07,0.17,0.11,0.25c-1.82-0.09-3.31-0.2-4.23-0.25h0c-0.35-0.02-0.73-0.04-1.11-0.05
		c-0.14-0.01-0.26-0.01-0.4-0.02c-1.99-0.08-4.3-0.14-6.51-0.14h-0.17c-0.12,0-0.23,0-0.35,0c-1.46,0.01-2.86,0.04-4.08,0.1
		c-0.72,0.04-1.36,0.09-1.92,0.15c0.06-0.09,0.12-0.17,0.18-0.26c0.23-0.34,0.46-0.7,0.65-1.03c0.09-0.17,0.17-0.33,0.24-0.49
		c0.06-0.16,0.11-0.31,0.13-0.49l0-0.06c-0.01-0.4-0.21-0.67-0.42-0.9c-0.32-0.34-0.73-0.62-1.07-0.83
		c-0.04-0.02-0.07-0.04-0.11-0.06C51.73,100.43,51.74,100.42,51.75,100.41z M56.59,75.98c-0.03-0.06-0.05-0.12-0.07-0.17
		c0.4-0.27,1.03-0.51,1.76-0.67c0.89-0.2,1.89-0.29,2.72-0.28c0.5,0,0.93,0.03,1.23,0.08c0.1,0.02,0.17,0.04,0.23,0.05
		c0.06,0.37,0.18,0.89,0.35,1.58c0.18,0.69,0.42,1.52,0.71,2.43l-0.01,0l0.21,0.63c0.4,1.21,0.9,2.54,1.47,3.88l0.14,0.31l0.01,0
		c1.27,2.87,2.9,5.73,4.94,7.47l0.01,0.01l1.18,0.85l1.12-1.11l0,0c1.48-1.52,3.11-4.05,4.3-6.89c2.1,0.17,4.26,0.4,6.3,0.72
		c0,0.01,0,0.02,0,0.03c0,1.74,0.03,3.64,0.11,5.61l0,0l0.03,0.58c0.07,1.52,0.18,3.08,0.33,4.63l0.04,0.38l0.01,0
		c0.15,1.46,0.34,2.9,0.59,4.3c-1,0.32-2.22,0.55-3.63,0.68c-0.09-1.77-0.23-3.58-0.42-5.32l0.01,0l-0.07-0.59
		c-0.18-1.62-0.4-3.16-0.66-4.49l-0.08-0.4l-0.01,0c-0.12-0.59-0.25-1.15-0.39-1.65l-0.41-1.44l-0.54,1.39
		c-0.19,0.5-0.41,1.07-0.63,1.67h0l-0.12,0.33c-0.48,1.32-1.01,2.8-1.54,4.35l-0.22,0.64l0,0c-0.62,1.83-1.22,3.69-1.75,5.43l0,0
		l-0.12,0.39c-0.43,1.42-0.79,2.73-1.05,3.82l-0.14,0.6l0,0c-0.02,0.07-0.04,0.15-0.05,0.22c-0.03-0.07-0.05-0.15-0.08-0.22l0.02,0
		l-0.31-0.73c-0.55-1.28-1.2-2.73-1.89-4.22l-0.12-0.25l0,0c-0.8-1.71-1.64-3.46-2.44-5.09h0l-0.36-0.72
		c-0.77-1.55-1.48-2.94-2.04-4.01l-0.14-0.27h0c-0.22-0.42-0.43-0.79-0.59-1.08c-0.21-0.36-0.36-0.61-0.49-0.78l-0.9-1.18v1.48
		c0,0.32,0.01,0.86,0.04,1.55c-0.8-0.02-1.56-0.05-2.24-0.11c-0.14-0.01-0.27-0.03-0.41-0.04c-0.21-2.05-0.54-3.92-0.93-5.6l0.01,0
		l-0.1-0.41c-0.37-1.53-0.79-2.89-1.19-4.06l-0.16-0.46l-0.01,0c-0.42-1.16-0.82-2.13-1.13-2.86C56.85,76.57,56.7,76.23,56.59,75.98
		z M66.16,79.93c3.71,0,7.57,0.4,10.95,0.7c0.2,0.02,0.41,0.04,0.6,0.05c1.71,0.15,3.28,0.26,4.63,0.26c0.49,0,0.95,0,1.4-0.01
		c0.17,0,0.32-0.01,0.48-0.01c2.8-0.05,4.91-0.22,6.49-0.48c0.87-0.15,1.58-0.32,2.15-0.51c-0.01,0.13-0.03,0.26-0.03,0.39
		c0,0.9,0.32,1.95,1.03,2.75c-0.11,0.07-0.22,0.14-0.33,0.22c-0.53,0.43-0.9,1.03-1.2,1.67c-0.21,0.44-0.36,0.9-0.51,1.35
		c-1.88-1.04-4.6-1.76-7.65-2.28c-0.14-0.02-0.28-0.05-0.42-0.07c-2.32-0.38-4.79-0.64-7.16-0.82c-0.12-0.01-0.24-0.02-0.37-0.03
		c-3.45-0.25-6.65-0.33-8.77-0.33c-0.5,0-1,0.01-1.5,0.03c0,0,0,0,0,0c-0.41-0.98-0.77-1.94-1.09-2.85
		C65.31,79.95,65.74,79.93,66.16,79.93z M78.92,76.25c0-0.24-0.02-0.47-0.04-0.69c0.53-0.13,1.14-0.19,1.75-0.19
		c0.72,0,1.42,0.1,1.93,0.27c0.25,0.08,0.45,0.19,0.58,0.28c0.13,0.1,0.17,0.17,0.18,0.23c0.01,0.02,0.02,0.23,0.02,0.52
		c0,0.66-0.04,1.81-0.07,3.27c-0.3,0-0.59,0.01-0.91,0.01c-1.14,0-2.49-0.09-3.96-0.21C78.72,78.45,78.92,77.25,78.92,76.25z
		 M90.71,93.66c1.41,1.02,2.02,2.3,2.03,4.1c-0.01,1.71-0.72,2.95-1.98,3.97c-1.26,1.01-3.08,1.74-5.18,2.23
		c-1.65,0.39-3.46,0.63-5.3,0.77c-1.63,0.13-3.27,0.17-4.85,0.17c-0.56,0-1.09-0.01-1.62-0.02c0.21-0.83,0.47-1.77,0.77-2.78
		c1.15,0.09,2.26,0.14,3.29,0.14c0.65,0,1.26-0.02,1.86-0.06c0.17-0.01,0.35-0.02,0.51-0.03c1.89-0.14,3.5-0.45,4.79-0.91h0
		c0.14-0.05,0.26-0.11,0.4-0.16c0.87-0.35,1.6-0.77,2.12-1.29c0.61-0.58,0.97-1.31,0.97-2.1c0-0.37-0.14-0.73-0.38-1
		c-0.35-0.42-0.87-0.7-1.52-0.93c-0.55-0.2-1.23-0.36-1.99-0.49c-0.11-1.21-0.19-2.41-0.26-3.61
		C87.29,92.03,89.38,92.71,90.71,93.66z M84.33,110.01c-0.13,0.13-0.24,0.25-0.34,0.37l-1.98-2.22l-0.37,0.46
		c0,0-0.28,0.36-0.92,1.18c0-0.04,0.01-0.07,0.01-0.11c0.06-0.88,0.08-1.96,0.08-3.16c0-0.28,0-0.58-0.01-0.87
		c1.56-0.13,3.09-0.35,4.53-0.66c0.45,1.49,0.98,2.87,1.63,4.07c-0.14-0.02-0.27-0.03-0.4-0.03
		C85.56,109.05,84.81,109.55,84.33,110.01z M85.24,100.07c-0.21-1.23-0.38-2.49-0.52-3.78c0.87,0.17,1.57,0.38,2.04,0.61
		c0.29,0.14,0.49,0.29,0.6,0.43c0.11,0.13,0.14,0.23,0.14,0.36c0,0.48-0.2,0.93-0.66,1.38C86.47,99.43,85.93,99.77,85.24,100.07z
		 M76.64,95.63c0.91,0.02,1.77,0.06,2.6,0.1c0.19,1.78,0.33,3.63,0.43,5.45c-0.58,0.03-1.17,0.06-1.8,0.06
		c-0.94,0-1.94-0.05-2.99-0.13C75.4,99.36,76.01,97.47,76.64,95.63z M78.16,91.29c0.15,0,0.3,0,0.45,0.01
		c0.19,1.04,0.36,2.2,0.51,3.43c-0.69-0.03-1.4-0.06-2.15-0.08C77.38,93.46,77.79,92.33,78.16,91.29z M71.87,90.35l-0.51,0.51
		l-0.46-0.33c-1.75-1.48-3.29-4.06-4.49-6.73c0.36-0.01,0.71-0.02,1.07-0.02c2.02,0,5.07,0.07,8.36,0.31
		C74.7,86.69,73.17,89.02,71.87,90.35L71.87,90.35z M60.72,95.42c0.8,0.08,1.64,0.13,2.55,0.13c0.07,0,0.15,0,0.22,0
		c0.11,1.35,0.24,2.8,0.4,4.27c-1.2-0.19-2.38-0.4-3.51-0.63C60.56,98.02,60.68,96.76,60.72,95.42z M59.51,90.23
		c-0.89-0.16-1.6-0.38-2.07-0.67c-0.29-0.18-0.49-0.37-0.62-0.58c-0.13-0.21-0.2-0.44-0.2-0.74c0-0.81,0.24-1.43,0.67-1.96
		c0.33-0.41,0.8-0.77,1.37-1.07C59.03,86.72,59.32,88.4,59.51,90.23z M64.92,99.98c-0.17-1.51-0.31-3.02-0.42-4.43
		c0.69,0,1.38,0,2.06,0c0.77,1.57,1.6,3.27,2.38,4.95C67.59,100.34,66.25,100.17,64.92,99.98z M57.54,81.12
		c0.31,0.92,0.62,1.96,0.9,3.09c-0.76,0.37-1.42,0.84-1.91,1.44c-0.57,0.7-0.9,1.58-0.9,2.59c0,0.46,0.12,0.9,0.35,1.27
		c0.34,0.56,0.9,0.95,1.58,1.23c0.58,0.24,1.28,0.4,2.06,0.52c0.14,0.02,0.26,0.05,0.4,0.07c1.08,0.14,2.32,0.2,3.68,0.22
		c0.17,0,0.35,0,0.53,0c0.1,0,0.19,0,0.29,0c0.45,0.85,0.97,1.87,1.53,3c-0.7,0-1.39,0-2.1,0c-0.23,0-0.45,0-0.68,0
		c-1.06,0-2.05-0.06-2.97-0.17c-3.1-0.36-5.33-1.29-6.77-2.47c-1.44-1.18-2.1-2.6-2.1-4.05c0-1.92,1.19-3.98,3.6-5.57
		C55.77,81.81,56.63,81.44,57.54,81.12z M64.37,108.56c-0.31-0.18-0.57-0.33-0.74-0.43c-0.17-0.1-0.26-0.16-0.26-0.16l-0.36-0.22
		l-1.64,1.87l-1.91-2.47l-2,1.26c0.44-0.88,0.9-1.9,1.35-3.1c2,0,4.06,0.05,5.9,0.12c0.28,1.46,0.59,2.77,0.97,3.84
		C65.18,109.01,64.73,108.77,64.37,108.56z"/>
	<path d="M44.43,125.63c-0.18-0.53-0.57-0.98-1.3-1.44c-0.44-0.28-0.87-0.51-1.22-0.66l-2.68,4.18c0.2,0.17,0.5,0.41,0.93,0.68
		c0.76,0.49,1.47,0.71,2.09,0.62c0.62-0.09,1.26-0.49,1.79-1.32C44.55,126.93,44.64,126.23,44.43,125.63z M43.07,127.09
		c-0.68,1.07-1.48,1.2-2.21,0.72c-0.1-0.06-0.21-0.13-0.27-0.19l1.82-2.83c0.09,0.03,0.21,0.09,0.38,0.2
		C43.52,125.45,43.64,126.21,43.07,127.09z"/>
	<path d="M47.74,126.89c-1.21-0.66-2.5-0.05-3.21,1.24c-0.68,1.25-0.58,2.63,0.64,3.3c1.16,0.63,2.4,0.25,3.23-1.27
		C49.04,128.98,49.01,127.58,47.74,126.89z M47.37,129.63c-0.48,0.87-1.14,1.35-1.73,1.03c-0.57-0.31-0.6-1.08-0.1-2
		c0.49-0.89,1.16-1.33,1.74-1.01C47.89,127.98,47.81,128.84,47.37,129.63z"/>
	<path d="M53.29,129.69l-1.16,1.37c-0.39,0.47-0.79,0.99-1.13,1.47l-0.02-0.01c0.14-0.58,0.26-1.2,0.36-1.81l0.28-1.77l-1.26-0.56
		l-2.38,4.48l0.91,0.41l0.85-1.67c0.27-0.53,0.6-1.19,0.88-1.77l0.02,0.01c-0.16,0.62-0.3,1.32-0.39,1.87l-0.32,1.94l0.76,0.34
		l1.3-1.52c0.37-0.42,0.82-0.97,1.2-1.48l0.02,0.01c-0.28,0.62-0.55,1.28-0.76,1.81l-0.7,1.75l0.95,0.43l1.82-4.73L53.29,129.69z"/>
	<rect x="52.65" y="132.63" transform="matrix(0.3528 -0.9357 0.9357 0.3528 -88.898 137.8202)" width="5.06" height="1.1"/>
	<path d="M60.2,132.2l-0.41,1.31c-0.24,0.78-0.43,1.49-0.56,2.11l-0.02,0c-0.03-0.57-0.11-1.26-0.21-1.8l-0.36-2.1l-1.15-0.36
		l-1.51,4.83l0.95,0.3l0.42-1.34c0.26-0.84,0.46-1.55,0.62-2.15l0.02,0c0.03,0.59,0.13,1.29,0.22,1.86l0.36,2.15l1.06,0.33
		l1.51-4.83L60.2,132.2z"/>
	<rect x="59.47" y="134.76" transform="matrix(0.2406 -0.9706 0.9706 0.2406 -84.2495 162.922)" width="5.06" height="1.1"/>
	<polygon points="63.15,138.19 66.04,138.74 66.21,137.84 64.4,137.49 64.63,136.26 66.25,136.57 66.42,135.69 64.8,135.38
		65,134.32 66.72,134.64 66.89,133.75 64.1,133.21 	"/>
	<rect x="66.94" y="136.06" transform="matrix(0.0999 -0.995 0.995 0.0999 -73.3964 192.0918)" width="5.06" height="1.1"/>
	<polygon points="72.32,134.28 71.23,134.24 71.03,139.3 73.92,139.41 73.96,138.49 72.16,138.42 	"/>
	<polygon points="75.98,138.43 75.81,134.3 74.72,134.34 74.92,139.4 77.81,139.28 77.78,138.36 	"/>
	<path d="M81.7,133.71l-1.09,0.14l0.4,3c0.11,0.85-0.13,1.24-0.63,1.31c-0.48,0.06-0.83-0.27-0.94-1.1l-0.4-3l-1.09,0.14l0.38,2.89
		c0.2,1.49,0.93,2.12,2.13,1.96c1.21-0.16,1.81-0.98,1.61-2.45L81.7,133.71z"/>
	<path d="M85.78,132.72l-0.04,1.8c0,0.61,0.01,1.26,0.04,1.85l-0.02,0.01c-0.25-0.54-0.55-1.1-0.85-1.63l-0.89-1.56l-1.33,0.35
		l0.96,4.98l0.96-0.25l-0.39-1.83c-0.12-0.58-0.28-1.3-0.43-1.93l0.02,0c0.27,0.58,0.6,1.21,0.87,1.7l0.98,1.71l0.8-0.21l0.06-2
		c0.02-0.56,0.03-1.28,0.01-1.91l0.02-0.01c0.17,0.66,0.37,1.34,0.54,1.89l0.56,1.8l1.01-0.27l-1.56-4.82L85.78,132.72z"/>
	<rect x="88.93" y="131.63" transform="matrix(0.9384 -0.3455 0.3455 0.9384 -40.8418 39.1751)" width="1.1" height="5.06"/>
	<path d="M92.55,130.11l0.57,1.24c0.34,0.74,0.68,1.4,1,1.94l-0.01,0.01c-0.41-0.4-0.93-0.86-1.37-1.2l-1.67-1.31l-1.09,0.5
		l2.12,4.59l0.9-0.42l-0.59-1.28c-0.37-0.8-0.7-1.46-0.99-2.01l0.02-0.01c0.42,0.41,0.96,0.87,1.42,1.23l1.71,1.35l1.01-0.47
		l-2.12-4.59L92.55,130.11z"/>
	<path d="M95.12,128.75l1.36,5.07l0.96-0.57l-0.37-1.24l1.11-0.66l0.93,0.91l0.99-0.58l-3.78-3.65L95.12,128.75z M97.64,130.73
		l-0.86,0.51l-0.31-1.06c-0.09-0.29-0.24-0.7-0.34-1l0.01-0.01c0.21,0.23,0.5,0.55,0.72,0.77L97.64,130.73z"/>
	<path d="M101.92,124.08l0.67,1.67c0.24,0.56,0.51,1.16,0.77,1.69l-0.02,0.01c-0.45-0.4-0.94-0.79-1.43-1.17l-1.44-1.08l-1.09,0.85
		l2.85,4.19l0.78-0.61l-1.08-1.53c-0.34-0.48-0.77-1.08-1.15-1.61l0.01-0.01c0.48,0.43,1.03,0.88,1.47,1.21l1.57,1.19l0.66-0.51
		l-0.74-1.86c-0.2-0.52-0.48-1.18-0.75-1.75l0.02-0.01c0.42,0.54,0.87,1.08,1.24,1.52l1.23,1.44l0.82-0.64l-3.34-3.81L101.92,124.08
		z"/>
	<polygon points="107.39,124.83 106.54,123.91 107.75,122.79 107.14,122.13 105.93,123.25 105.19,122.45 106.47,121.27
		105.85,120.6 103.77,122.53 107.2,126.24 109.36,124.24 108.74,123.57 	"/>
</g>
</svg>
