<?xml version="1.0" encoding="UTF-8"?>
<!DOCTYPE svg PUBLIC "-//W3C//DTD SVG 1.1//EN" "http://www.w3.org/Graphics/SVG/1.1/DTD/svg11.dtd">
<!-- Creator: CorelDRAW 2020 (64-Bit Evaluation Version) -->
<svg xmlns="http://www.w3.org/2000/svg" xml:space="preserve" width="210mm" height="297mm" version="1.1" style="shape-rendering:geometricPrecision; text-rendering:geometricPrecision; image-rendering:optimizeQuality; fill-rule:evenodd; clip-rule:evenodd"
viewBox="0 0 21000 29700"
 xmlns:xlink="http://www.w3.org/1999/xlink"
 xmlns:xodm="http://www.corel.com/coreldraw/odm/2003">
 <defs>
  <style type="text/css">
   <![CDATA[
    .str0 {stroke:#2B2A29;stroke-width:282.22;stroke-miterlimit:22.9256}
    .fil0 {fill:none}
   ]]>
  </style>
 </defs>
 <g id="Layer_x0020_1">
  <metadata id="CorelCorpID_0Corel-Layer"/>
  <g id="_1633974774256">
   <path class="fil0 str0" d="M5993.95 18811.5l6.55 -966.15 4245.42 2 4.58 964.15 1994.07 12.24c166.2,-17.61 105.3,-139.07 105.3,-570.05 0,-900.46 0,-1800.91 0,-2701.37l594.29 0c0,-207.6 -2.03,-415.39 1.6,-622.91 4.57,-262.06 40.43,-214.66 -433.81,-214.51l-8941.54 0 0 837.42 594.3 0 -2.76 3163.36c17.44,164.54 125.23,105.3 543.04,105.3 339.69,-0.01 987.2,36.73 1288.96,-9.48z"/>
   <path class="fil0 str0" d="M13079.24 13121.09l2674.35 0 0 1593.81c-364.1,0 -594.3,-54.19 -594.3,81.04l0 1593.8 1972 0c62.24,0 81.04,-18.79 81.04,-81.04l0 -3187.61 621.32 0 0 -837.43 -4754.41 0 0 837.43z"/>
   <path class="fil0 str0" d="M10648 13688.37l0 648.33 2674.36 0 0 1620.82 -594.31 0 0 1647.84 1972.01 0c62.24,0 81.04,-18.8 81.04,-81.04l0 -3187.62 594.3 0 0 -837.42 -4754.41 0c7.03,84.5 27.01,95.96 27.01,189.09z"/>
   <path class="fil0 str0" d="M6244.77 13742.4l0 594.3 4025.04 0 0 -567.29c0,-656.32 -460.8,-1107.56 -1161.59,-1107.56 -119.52,0 -325.84,143.13 -423.57,197.75 -555.8,310.62 -353.58,248.93 -837.29,9.58 -234.35,-115.96 -273.25,-207.33 -522.05,-207.33 -608.26,0 -1080.54,472.28 -1080.54,1080.55z"/>
   <path class="fil0 str0" d="M11566.47 11068.05c483.95,0 900.08,152.58 1165.89,481.93 64.59,80.03 187.3,250.29 211.8,355.49l2188.11 0 0 -702.36c0,-496.12 -475.17,-972.49 -972.49,-972.49 -390.17,0 -255.99,19.23 -611.96,198.45 -450.64,226.89 -318.86,299.28 -808.36,6.26 -358.43,-214.56 -317.45,-204.71 -578.7,-204.71 -113.06,0 -91.95,199.24 -254.61,447.74 -109.73,167.65 -248.21,253.09 -339.68,389.69z"/>
   <path class="fil0 str0" d="M9108.22 12283.66c403.37,0 650.14,72.02 897.35,237.23 119.29,79.72 203.77,163.59 298.04,269.25 149.63,167.69 162.06,330.95 263.35,330.95l2134.08 0 0 -621.32c0,-639.92 -471.13,-1053.53 -1161.58,-1053.53 -81,0 -712.95,324.01 -837.43,432.22 -84.65,-56.69 -731.4,-432.22 -837.43,-432.22 -467.57,0 22.24,160.65 -756.38,837.42z"/>
   <path class="fil0 str0" d="M7190.25 11095.06c0,444.42 264.38,815.99 617.37,976.43 1103.27,501.49 2010.48,-907.41 1213.9,-1700.13 -723.71,-720.19 -1831.27,-147.16 -1831.27,723.7z"/>
   <path class="fil0 str0" d="M10675.01 10959.99c144.07,0 318.74,-39.37 423.74,-89.53 1147.8,-548.34 659.18,-2044.55 -396.72,-2044.55 -596.81,0 -1059.86,484.55 -1075.45,1055.96 -8.45,309.83 129.15,522.24 302.78,743.23 122.14,155.47 478.16,334.89 745.65,334.89z"/>
   <path class="fil0 str0" d="M12079.72 8609.8c0,367.1 65.49,566.13 316.62,817.96 388.18,389.28 989.88,415.39 1436.46,43.67 97.08,-80.81 166.6,-161.29 228.79,-284.48 360.77,-714.51 -49.8,-1576.65 -982.35,-1576.65 -510.41,0 -999.52,489.09 -999.52,999.5z"/>
  </g>
 </g>
</svg>
