<?xml version="1.0" encoding="UTF-8"?>
<!DOCTYPE svg PUBLIC "-//W3C//DTD SVG 1.1//EN" "http://www.w3.org/Graphics/SVG/1.1/DTD/svg11.dtd">
<!-- Creator: CorelDRAW 2020 (64-Bit Evaluation Version) -->
<svg xmlns="http://www.w3.org/2000/svg" xml:space="preserve" width="210mm" height="297mm" version="1.1" style="shape-rendering:geometricPrecision; text-rendering:geometricPrecision; image-rendering:optimizeQuality; fill-rule:evenodd; clip-rule:evenodd"
viewBox="0 0 21000 29700"
 xmlns:xlink="http://www.w3.org/1999/xlink"
 xmlns:xodm="http://www.corel.com/coreldraw/odm/2003">
 <defs>
  <style type="text/css">
   <![CDATA[
    .str0 {stroke:#5B5B5B;stroke-width:20;stroke-miterlimit:22.9256}
    .fil0 {fill:#2B2A29}
   ]]>
  </style>
 </defs>
 <g id="Layer_x0020_1">
  <metadata id="CorelCorpID_0Corel-Layer"/>
  <g id="_1633656967760">
   <path class="fil0" d="M15121.37 21253.88c-730.89,169.85 -3668.59,51.08 -4657.7,51.08 -5187.99,-0.08 -4810.6,382.38 -4808.62,-1083.03 1.82,-1366.34 -65.64,-7814.26 31.36,-8112.63 16.31,-7.68 42.05,-32.78 51.31,-16.71l231.3 -38.88c2712.03,-170.64 2396.71,870.49 2401.86,-2758.35 1473.17,-91.46 3205.59,-12.27 4707.5,-12.35 2458.87,0 2155.98,-433.15 2111.17,2558.48 -19.09,1278.45 82.51,8885.65 -68.18,9412.39zm-6880.43 -12390.95c-308.35,102.39 -590.25,460.23 -764.3,662.54 -261.16,303.52 -1968.08,1971.17 -2165.41,2259.88 -266.62,389.99 -114.42,7212.46 -123.77,8638.11 -8.63,1321.61 331.79,1353.12 1588.86,1352.73 1966.1,-0.64 3933.54,-0.71 5899.8,0 3235.12,1.19 2977.37,364.81 2977.37,-2895.1l25.34 -8717.54c16.63,-1196.89 -450.96,-1355.02 -1594.71,-1350.98 -874.37,3.09 -5408.61,-93.92 -5843.18,50.36z"/>
   <path class="fil0" d="M12445.61 11480.41c5.15,-130.18 0.16,-162.33 47.59,-288.4 63.98,-170.4 67.23,-133.58 132.16,-187.59l127.96 461.1 -307.71 14.89zm-574.02 489.68c-912.06,-1472.93 1581.02,-2923.77 2429.41,-1284.47 780.06,1507.3 -1312.89,2897.48 -2366.46,1424l226.87 -120.76c133.35,-101.76 87.66,-123.93 179.28,-261.63l537.43 -17.82c122.74,288.63 29.38,320.62 393.16,313.66l-419.13 -1161.26c-391.42,-831.84 -674.58,481.45 -808.01,816.16 -39.99,100.17 -36.74,100.33 -85.52,182.13 -105,175.79 -21.78,43.4 -87.03,109.99zm835.25 -2330.59c-859.4,145.78 -1501.44,1071.3 -1336.81,2033.72 145.47,850.3 1050.87,1600.5 2099.37,1364.77 2063.02,-463.87 1641.67,-3806.21 -762.56,-3398.49z"/>
   <path class="fil0" d="M8347.2 13583.34l-9.34 435.2c451.83,96.29 4021.99,75.7 4949.17,49.33 402.58,-11.48 473.85,-40.94 401.24,-418.1 -411.29,-154.49 -4575.66,-67.22 -5341.07,-66.43z"/>
   <path class="fil0" d="M8352.59 16491.11c441.62,96.37 5022.26,97.56 5341.06,-14.89 116.64,-599.43 -452.86,-419.76 -1017.53,-419.21l-3218.1 0.08c-549.07,-0.39 -1245.51,-195.66 -1105.43,434.02z"/>
   <path class="fil0" d="M6655.33 18533.22l830.49 28.67 3.33 791.7 -833.03 -8.95 -0.79 -811.42zm1190.23 -401.86c-189.8,-104.13 -1461.52,-135.65 -1596.85,19.32 -117.67,134.85 -62.16,1415.92 -22.89,1622.91 280,95.26 1373.95,130.18 1628.14,-14.1 160.9,-136.91 94.7,-482.08 95.42,-811.41 0.31,-148.79 12.43,-328.46 6.33,-471.55 -13.38,-310.96 -68.97,-296.24 -110.15,-345.17z"/>
   <path class="fil0" d="M8462.81 18687.08c-222.74,103.81 -216.33,327.35 22.49,412.95l5092.9 8c417.46,-542.89 -222.75,-456.9 -700.71,-453.26 -698.97,5.39 -4243.87,-47.35 -4414.68,32.31z"/>
   <path class="fil0" d="M6647.88 14171.29l-10.69 -710.69 854.65 -6.65 5.78 835.64c-223.46,27.16 -689.86,103.18 -843.4,-69.28l-6.34 -49.02zm-408.67 486.04c116.87,86 1490.82,279.53 1665.74,-58.91 60.66,-117.36 37.62,-40.55 50.28,-206.76 9.35,-122.02 -4.67,-337.57 -5.06,-471.47 -0.87,-293.54 27,-622.32 -49.73,-849.82 -209.37,-98.9 -1399.84,-150.85 -1597.81,-23.36 -219.02,141.03 -170.01,1330.56 -63.42,1610.32z"/>
   <path class="fil0 str0" d="M6652.63 16789.24c-209.92,-125.51 -140.47,65.09 -114.74,-593.26 19.25,-493.56 315.08,-311.43 640.22,-341.36 23.75,-2.22 84.25,-19.56 105.24,-21.46 282.69,-26.53 313.89,97.39 367.34,120.28 -38.41,822.1 69.92,626.67 -387.93,1093.08l-151.25 -177.22c-569.18,125.51 -458.88,-79.98 -458.88,-80.06zm190.68 448.03l1050.71 -27.24c102.07,-363.38 100.89,-1375.05 11.96,-1669.7 -243.34,-92.65 -614.24,-71.51 -929.24,-73.25 -398.3,-2.14 -729.14,-92.49 -787.82,268.68 -28.82,177.29 -7.12,849.03 -5.46,1072.96 4.04,539.57 173.41,426.97 659.85,428.55z"/>
   <path class="fil0" d="M8714.31 10969.9c-550.42,636.25 2321.56,326.72 2343.57,306.84 508.21,-458.8 -700.39,-400.36 -929.4,-399.57 -277.39,1.03 -1259.44,-86.23 -1414.17,92.73z"/>
   <path class="fil0 str0" d="M6652.63 16789.24l1.19 -853.22 840.24 22.65c14.89,1001.3 113.23,776.96 -841.43,830.57zm0 0c0,0.08 -110.3,205.57 458.88,80.06l151.25 177.22c457.85,-466.41 349.52,-270.98 387.93,-1093.08 -53.45,-22.89 -84.65,-146.81 -367.34,-120.28 -20.99,1.9 -81.49,19.24 -105.24,21.46 -325.14,29.93 -620.97,-152.2 -640.22,341.36 -25.73,658.35 -95.18,467.75 114.74,593.26z"/>
   <path class="fil0" d="M14373.93 11372.16c-87.97,-196.06 88.85,-147.05 -330.75,-169.22 -59.79,-328.38 55.51,-261.07 -160.28,-371.3 -215.54,111.26 -97.16,41.1 -146.01,381.75 -388.73,4.6 -246.03,-44.66 -349.92,158.77 124.16,93.04 80.29,104.6 358.63,76.65 20.27,315.32 -50.29,220.69 137.3,355.23 187.67,-122.82 108.73,-20.35 155.05,-340.66 83.22,-1.74 91.14,7.68 180.31,-13.22 118.14,-27.64 97.24,-39.2 155.67,-78z"/>
   <path class="fil0" d="M6647.88 14171.29l25.58 -670.46 753.92 -3.65 5.55 743.95 -778.71 -20.82c153.54,172.46 619.94,96.44 843.4,69.28l-5.78 -835.64 -854.65 6.65 10.69 710.69z"/>
  </g>
 </g>
</svg>
