<?xml version="1.0" encoding="UTF-8"?>
<!DOCTYPE svg PUBLIC "-//W3C//DTD SVG 1.1//EN" "http://www.w3.org/Graphics/SVG/1.1/DTD/svg11.dtd">
<!-- Creator: CorelDRAW 2020 (64-Bit Evaluation Version) -->
<svg xmlns="http://www.w3.org/2000/svg" xml:space="preserve" width="210mm" height="297mm" version="1.1" style="shape-rendering:geometricPrecision; text-rendering:geometricPrecision; image-rendering:optimizeQuality; fill-rule:evenodd; clip-rule:evenodd"
viewBox="0 0 21000 29700"
 xmlns:xlink="http://www.w3.org/1999/xlink"
 xmlns:xodm="http://www.corel.com/coreldraw/odm/2003">
 <defs>
  <style type="text/css">
   <![CDATA[
    .str0 {stroke:#434242;stroke-width:423.33;stroke-miterlimit:22.9256}
    .fil0 {fill:none}
   ]]>
  </style>
 </defs>
 <g id="Layer_x0020_1">
  <metadata id="CorelCorpID_0Corel-Layer"/>
  <g id="_1597876599552">
   <path class="fil0 str0" d="M5732.81 11293.54c0,1013.36 216.11,1875.39 979.16,2580.28 2021.89,1867.81 5500.81,641.53 5500.81,-2489.02 0,-1690.23 -1453.8,-3110.44 -3207.29,-3132.75 -1655.87,-21.06 -3272.68,1302.82 -3272.68,3041.49z"/>
   <path class="fil0 str0" d="M3451.15 19690.08l0 273.8 10039.37 0c-145.23,-623.33 -91.28,-530.08 -91.28,-1277.72l-3650.67 0 0 -3103.06c-1519.15,-353.94 -3605.16,298.74 -4579.17,1079.36 -753.76,604.14 -1718.25,1717.2 -1718.25,3027.62z"/>
   <path class="fil0 str0" d="M14220.64 13988.05l0 1734.09 -3650.67 0 0 2099.12 3559.41 0c0,2691.82 30.35,2493.88 1983.21,614.2 1186.17,-1141.7 2023.39,-1322.35 823.44,-2508.19 -282,-278.69 -496.52,-493.66 -775.55,-775.97 -207.46,-209.89 -1503.99,-1437.05 -1666.04,-1437.05 -210.28,0 -273.8,63.52 -273.8,273.8z"/>
  </g>
 </g>
</svg>
