<?xml version="1.0" encoding="UTF-8"?>
<!DOCTYPE svg PUBLIC "-//W3C//DTD SVG 1.1//EN" "http://www.w3.org/Graphics/SVG/1.1/DTD/svg11.dtd">
<!-- Creator: CorelDRAW 2020 (64-Bit Evaluation Version) -->
<svg xmlns="http://www.w3.org/2000/svg" xml:space="preserve" width="210mm" height="297mm" version="1.1" style="shape-rendering:geometricPrecision; text-rendering:geometricPrecision; image-rendering:optimizeQuality; fill-rule:evenodd; clip-rule:evenodd"
viewBox="0 0 21000 29700"
 xmlns:xlink="http://www.w3.org/1999/xlink"
 xmlns:xodm="http://www.corel.com/coreldraw/odm/2003">
 <defs>
  <style type="text/css">
   <![CDATA[
    .str0 {stroke:#2B2A29;stroke-width:282.22;stroke-miterlimit:22.9256}
    .fil0 {fill:none}
   ]]>
  </style>
 </defs>
 <g id="Layer_x0020_1">
  <metadata id="CorelCorpID_0Corel-Layer"/>
  <g id="_1633918631840">
   <path class="fil0 str0" d="M5084.26 10157.85l11057.96 0 0 7111.27 -11057.96 0 0 -7111.27zm-944.56 -511.38l0 8122c0,230.33 165.03,444.09 374.67,527.78 72.93,29.11 157.27,43.77 257.04,43.77l4361.82 0 -84.23 697.9c-12.98,115.99 -29.13,232.95 -42.11,348.94l-30.59 258.19c-2.95,25.68 -10.96,65.22 -11.53,90.76l-360.97 0 0 529.43 4018.88 0 0 -529.43 -360.97 0 -105.66 -694.52c-19.22,-119.35 -34.83,-229.72 -53.31,-349.78 -9,-58.51 -18.96,-117.45 -26.54,-172l-25.06 -179.49 4403.93 0c209.25,0 392.34,-76.62 513.16,-238.87 19.01,-25.51 45.47,-64.17 58.39,-92.02 29.36,-63.31 60.16,-148.56 60.16,-240.66l0 -8122c0,-78.59 -28.86,-166.23 -56.08,-220.67 -95.07,-190.18 -292.06,-338.85 -503.44,-338.85l-11828.04 0c-282.78,0 -559.52,276.76 -559.52,559.52z"/>
   <path class="fil0 str0" d="M9981.53 15229.59l0 -3038.23c20.36,13.64 40.6,30.45 61.88,46.42 23.53,17.67 42.34,31.73 65.33,48.98l382.98 284.82c43.98,29.92 85.75,63.76 127.54,95.07l1401.79 1046.84c-42.84,28.69 -82.17,60.09 -124.62,91.96l-1021.05 759.78c-43.89,32.9 -82.51,64.37 -127.36,95.23 -89.07,61.31 -168.67,129.34 -255.14,190.07l-383.29 284.52c-43.55,32.68 -84.09,65.1 -128.06,94.54z"/>
   <path class="fil0 str0" d="M10643.32 16288.46c-250.85,0 -407.14,-19.71 -628.08,-69.8 -340.48,-77.18 -693.64,-247.72 -968.78,-463.11l-260.52 -226.8c-15.27,-18.07 -18.54,-24.5 -36.22,-41.99l-75.2 -81.22c-16.64,-16.72 -23.54,-27.69 -39.09,-45.14 -24.06,-26.98 -47.53,-57.55 -69.47,-86.95 -25.09,-33.64 -43.55,-59.3 -68.01,-94.43 -13.39,-19.23 -18.92,-26.79 -31.37,-46.84 -10.6,-17.05 -20.83,-31.15 -31.3,-46.91 -110.32,-166.1 -248.52,-469.49 -297.18,-665.44 -120.06,-483.52 -133.85,-786.43 -34.22,-1284.47 73.14,-365.61 287.91,-785.85 531.85,-1074.5l234.21 -247.1c129.89,-120.13 314.59,-255.56 465.99,-340.19 210.4,-117.61 457.06,-223.18 695.22,-273.4 89.01,-18.77 182.77,-38.52 276.3,-48.58 482.54,-51.92 924.19,13.44 1364.58,209.6 284.41,126.68 448.69,255.1 678.15,446.9 27.42,22.93 55.4,54.87 81.49,80.95 26.08,26.09 54.35,51.22 78.16,78.26l147.25 177.64c228.47,306.19 373.72,601.37 463.76,986.16 124.33,531.29 69.3,1145.18 -157.2,1633.26 -9.28,19.99 -16.85,31.54 -25.57,52.65 -24.49,59.35 -30.02,58.78 -52.76,103.66 -69.66,137.46 -189.2,315.86 -288.55,433.41 -62.64,74.12 -123.26,141.47 -195.25,207.84 -74.98,69.13 -119.82,117.84 -211.13,185.95 -118.43,88.35 -159.94,117.16 -287.02,194.28 -34.39,20.86 -70.21,40.29 -104.9,57.54 -109.33,54.36 -219.55,106.61 -336.11,145.19 -260.84,86.34 -518.31,143.58 -819.03,143.58zm-3134.49 -2653.18c0,375.55 15.83,476.05 88.68,819.77 21.86,103.13 55.62,202 87.98,297.06 16.78,49.28 34.8,91.39 53.66,138.87 58.75,147.84 116.92,250.11 190.82,386.75 77.41,143.14 291.43,433.39 410.61,551.99 34.35,34.18 57.97,65.54 93.13,99.39l174.58 156.32c11.57,10.75 13.56,13.32 25.54,22.6 35.85,27.77 71.31,56.01 107.51,85 35.75,28.64 73.26,52.92 111.66,80.86 142.81,103.93 329.56,201.19 492.78,277.31l277.04 108.01c806.82,269.02 1650.67,198.52 2384.2,-168.2 234.45,-117.21 546.73,-327 734.46,-516.92 19.46,-19.7 32.62,-27.02 51.29,-44.98 33.85,-32.57 56.68,-63.02 90.12,-96.38 79.59,-79.4 192.71,-225.16 259.75,-317.82 60.32,-83.39 98.52,-146.73 151.24,-233.79 257.24,-424.81 423.77,-1008.3 423.77,-1501.45 0,-348.64 -28.51,-637.85 -125.6,-951.32 -38.09,-123.01 -75.53,-231.18 -126.92,-348.37 -9.93,-22.66 -20.89,-45.91 -29.4,-66.86 -34.5,-84.91 -85.12,-171.45 -129.04,-249.98 -23.2,-41.48 -45.53,-78.64 -70.34,-116.17 -12.97,-19.61 -23.51,-38.36 -37.29,-58.98 -112.11,-167.89 -246.5,-330.09 -388.37,-471.96 -64.69,-64.69 -125.61,-123.72 -195.82,-183.2 -69.4,-58.79 -140.96,-112.22 -214.75,-164.28 -487.61,-343.99 -1113.34,-565.49 -1714.68,-565.49 -454.26,0 -699.15,39.12 -1106.3,175.17 -195.54,65.34 -467.05,199.81 -634.9,309.67 -40.95,26.8 -75.04,49.68 -114.38,78.14l-161.78 120.98c-19.87,16.06 -33.88,27.57 -53.14,43.13l-48.7 41.54c-91.53,80.88 -181.01,170.16 -261.8,261.61 -62.59,70.84 -85.44,92.18 -151.04,179.86l-156.97 222.06c-133.62,223.76 -152.52,258.63 -258.83,499.23 -94.57,214.05 -165.95,512.23 -200.53,750.04 -14.93,102.6 -28.24,231.7 -28.24,350.79z"/>
  </g>
 </g>
</svg>
