<?xml version="1.0" encoding="UTF-8"?>
<!DOCTYPE svg PUBLIC "-//W3C//DTD SVG 1.1//EN" "http://www.w3.org/Graphics/SVG/1.1/DTD/svg11.dtd">
<!-- Creator: CorelDRAW 2020 (64-Bit Evaluation Version) -->
<svg xmlns="http://www.w3.org/2000/svg" xml:space="preserve" width="210mm" height="297mm" version="1.1" style="shape-rendering:geometricPrecision; text-rendering:geometricPrecision; image-rendering:optimizeQuality; fill-rule:evenodd; clip-rule:evenodd"
viewBox="0 0 21000 29700"
 xmlns:xlink="http://www.w3.org/1999/xlink"
 xmlns:xodm="http://www.corel.com/coreldraw/odm/2003">
 <defs>
  <style type="text/css">
   <![CDATA[
    .fil0 {fill:#142C38}
   ]]>
  </style>
 </defs>
 <g id="Layer_x0020_1">
  <metadata id="CorelCorpID_0Corel-Layer"/>
  <g id="_1633919243120">
   <path class="fil0" d="M5914.84 20279.09c1895.91,414.8 2426.53,735.1 4656.1,772.79 1966.8,33.25 2846.02,-197.95 4561.64,-812.64 -31.26,-1664.88 271.6,-3463.46 -680.73,-4646.2 -413.75,-513.86 -926.62,-892.07 -1554.07,-1119.08 -863.91,-312.56 -3968.45,-345.72 -4856.25,44.12 -1328.41,583.31 -2113.13,1637.71 -2126.94,3123.68 -8.14,877.61 1.68,1759.16 0.25,2637.33z"/>
   <path class="fil0" d="M10138.35 8418.14c-1381.15,201.49 -2559.62,1481.67 -2281.25,3126.69 224.66,1327.66 1510.57,2496.26 3130.47,2210.67 1348.16,-237.68 2435.97,-1476.64 2204.94,-3090.71 -190.31,-1329.49 -1475.33,-2476.99 -3054.16,-2246.65z"/>
  </g>
 </g>
</svg>
