<?xml version="1.0" encoding="UTF-8"?>
<!DOCTYPE svg PUBLIC "-//W3C//DTD SVG 1.1//EN" "http://www.w3.org/Graphics/SVG/1.1/DTD/svg11.dtd">
<!-- Creator: CorelDRAW 2020 (64-Bit Evaluation Version) -->
<svg xmlns="http://www.w3.org/2000/svg" xml:space="preserve" width="210mm" height="297mm" version="1.1" style="shape-rendering:geometricPrecision; text-rendering:geometricPrecision; image-rendering:optimizeQuality; fill-rule:evenodd; clip-rule:evenodd"
viewBox="0 0 21000 29700"
 xmlns:xlink="http://www.w3.org/1999/xlink"
 xmlns:xodm="http://www.corel.com/coreldraw/odm/2003">
 <defs>
  <style type="text/css">
   <![CDATA[
    .str0 {stroke:#2B2A29;stroke-width:352.78;stroke-miterlimit:22.9256}
    .str1 {stroke:#2B2A29;stroke-width:176.39;stroke-miterlimit:22.9256}
    .fil0 {fill:none}
   ]]>
  </style>
 </defs>
 <g id="Layer_x0020_1">
  <metadata id="CorelCorpID_0Corel-Layer"/>
  <path class="fil0 str0" d="M8537.83 19060.33c0,-661.48 -83.23,-1535.95 769.6,-1880.94 389.7,-157.64 1588.08,-155.33 1972.02,-8.71 82.05,31.34 156.21,73.5 224.79,122.3 205.08,145.92 358.63,296.76 460.68,549.05 143.77,355.4 106.96,826.68 106.96,1218.3 0,155.96 -128.03,283.98 -283.99,283.98l-2966.07 0c-155.96,0 -283.99,-128.02 -283.99,-283.98zm504.87 -3502.49c0,-1347.93 1881.5,-1734.67 2408.28,-515.04 563.67,1305.04 -1080.03,2363.24 -2037.17,1406.09 -211.28,-211.26 -371.11,-579.13 -371.11,-891.05zm-3786.48 -5648.15l0 10539.01c0,582.1 585.4,1167.5 1167.5,1167.5l7762.27 0c582.1,0 1167.5,-585.4 1167.5,-1167.5l0 -10539.01c0,-436.57 -315.61,-812.05 -592.46,-985.23 -398.29,-249.16 -783.8,-182.27 -1395.44,-182.27 65.64,281.73 721.15,1157.02 372.83,2550.05 -26.21,104.79 -56.43,237.6 -92.11,349.65 -35.71,112.13 -80.95,200.94 -127.31,314.44 -80.95,198.19 -196.79,390.18 -317.04,566.47 -184.74,270.85 -173.85,210.61 -300.28,362.36 -909.56,1091.62 -2644.49,1472.02 -4047.95,842.2 -429.27,-192.64 -845.45,-481.86 -1145.69,-842.2 -256.96,-308.39 -426.29,-461.12 -617.33,-928.83 -370.12,-906.15 -450.77,-1918.88 -25.79,-2825.38 60.68,-129.42 147.69,-253.49 179.2,-388.76 -611.63,0 -997.15,-66.89 -1395.43,182.27 -276.86,173.18 -592.47,548.66 -592.47,985.23z"/>
  <path class="fil0 str1" d="M10052.42 10730.09l0 -2208.77c0,-303.45 510.4,-497.9 506.2,124.87l-1.33 2020.79c93.48,24.96 439.78,306.25 536.41,378.65 115.58,86.59 473.31,310.3 473.31,473.31 0,109.99 -142.44,252.43 -252.43,252.43 -118.85,0 -821.53,-562.36 -1005.46,-698.45 -104.03,-76.99 -256.7,-174.32 -256.7,-342.83zm-2776.74 -410.2c0,757.76 100.13,1322.53 549.45,1943.3l329.6 396.15c523.64,474.7 1207.96,879.05 1960.8,879.05 757.76,0 1322.54,-100.13 1943.31,-549.46l292.53 -243.88c286.68,-228.09 524.29,-589.84 688.6,-920.66 399.85,-805.05 399.85,-1825.31 0,-2630.36 -77.2,-155.43 -157,-302.87 -255.39,-438.8 -185.85,-256.77 -304.41,-356.39 -515.45,-557.39 -393.17,-374.44 -1201.85,-717.8 -1774.95,-717.8l-378.65 0c-1419.5,0 -2839.85,1420.34 -2839.85,2839.85z"/>
 </g>
</svg>
