<?xml version="1.0" encoding="UTF-8"?>
<!DOCTYPE svg PUBLIC "-//W3C//DTD SVG 1.1//EN" "http://www.w3.org/Graphics/SVG/1.1/DTD/svg11.dtd">
<!-- Creator: CorelDRAW 2020 (64-Bit Evaluation Version) -->
<svg xmlns="http://www.w3.org/2000/svg" xml:space="preserve" width="210mm" height="297mm" version="1.1" style="shape-rendering:geometricPrecision; text-rendering:geometricPrecision; image-rendering:optimizeQuality; fill-rule:evenodd; clip-rule:evenodd"
viewBox="0 0 21000 29700"
 xmlns:xlink="http://www.w3.org/1999/xlink"
 xmlns:xodm="http://www.corel.com/coreldraw/odm/2003">
 <defs>
  <style type="text/css">
   <![CDATA[
    .str0 {stroke:#2B2A29;stroke-width:282.22;stroke-miterlimit:22.9256}
    .str1 {stroke:#434242;stroke-width:246.94;stroke-miterlimit:22.9256}
    .fil6 {fill:none}
    .fil0 {fill:#030303}
    .fil3 {fill:#2E2E2E}
    .fil4 {fill:#62798A}
    .fil2 {fill:#EEF3F6}
    .fil1 {fill:#F9F9F9}
    .fil5 {fill:#FBFBFB}
   ]]>
  </style>
 </defs>
 <g id="Layer_x0020_1">
  <metadata id="CorelCorpID_0Corel-Layer"/>
  <g id="_1633915539104">
   <path class="fil0" d="M7262.61 15302.87c7.25,-306.9 2.76,-619.55 3.16,-927.43 0.4,-320.19 49.49,-608.27 -255.05,-681.24 -204.75,-49.03 -1073.48,143.53 -1113.87,-728.83 -54.04,-1168.83 3.45,-2471.87 0.51,-3656.87 -1.61,-651.66 59.28,-1091.61 727.86,-1120.38 580.36,-25.04 1217.75,1.26 1805.18,-0.52 1218.04,-3.63 2436.2,3.22 3654.23,0.81 1612.35,-3.17 1356.1,209.35 1358.4,2338.18 3.97,3598.01 292.51,3143.73 -2332.84,3152.77 -2585.98,8.8 -1504.33,-256.2 -2853.98,812.67l-993.6 810.84zm-2047.93 -6637l0 4570.89c235.72,433.56 270.13,798.06 889.1,1029.35 588.08,219.71 489.38,-349.54 485.3,1376.63 -3.74,1551.47 799.96,424.99 1748.16,-335.15l972.65 -832.13c166.14,-157.79 185.88,-129.36 482.19,-126.49 828.44,7.94 1658.85,0.69 2487.46,1.1 2149.5,0.97 1839.03,-1176.2 1836.79,-3043.89 -0.98,-801.74 24.34,-1639.16 -0.81,-2436.19 -11.39,-359.78 -135.06,-685.15 -322.2,-880.47 -352.42,-367.95 -382.81,-254.41 -795.36,-483.74l-6623.76 0c-374.29,199.81 -410.89,68.08 -753.87,405.42 -335.78,330.21 -211.77,390.17 -405.65,754.67z"/>
   <path class="fil0" d="M14362.8 18468.47l208.49 0c328.71,-249.81 233.12,-367.61 232.03,-877.02 -0.8,-395.52 4.6,-792.24 -1.84,-1187.48 1055.24,-38.9 1175.97,-748.97 1375.89,-1149.67l0 -4533.37c-243.48,-484.37 -140.59,-575.35 -594.75,-915 -519.99,-388.9 -964.95,8.12 -700.75,357.08 223.4,295.1 605.8,119.76 614.32,897.27l-1.39 3071.86c-1.49,435.34 100.37,1046.31 -162.45,1345.96 -355.87,405.88 -930.94,121.02 -1130.97,381.88 -142.26,185.42 -76.31,1205.84 -72.34,1506.18 -347.64,-233.3 -1194.32,-1030.21 -1567.92,-1323.41 -226.68,-177.93 -264.6,-306.61 -668.98,-311.5 -648.04,-7.77 -1302.29,4.09 -1951.3,2.42 -228.29,-0.58 -775.68,-27.74 -968,10.07 -264.2,51.96 -382.28,349.13 -179.2,557.57 191.06,195.95 2207.5,109.4 2755.98,104.68 543.7,-4.66 497.66,99.21 1241.29,724.69l1571.89 1337.79z"/>
   <path class="fil1" d="M14571.29 18468.47l1606.08 0 0 -3214.17c-199.92,400.7 -320.65,1110.77 -1375.89,1149.67 6.44,395.24 1.04,791.96 1.84,1187.48 1.09,509.41 96.68,627.21 -232.03,877.02z"/>
   <path class="fil0" d="M12040.44 9724.97c-398.23,-244.06 -451.57,-156.42 -1173.9,-157.57l-2728.53 -0.11c-371.81,0.57 -987.97,-71.65 -846,439.77 95.13,342.69 707.6,232.72 1138.39,233.87 454.86,1.21 909.53,-1.15 1364.27,-0.23 454.56,0.98 909.76,2.01 1364.21,-0.06 551.64,-2.47 947.45,134.37 881.56,-515.67z"/>
   <path class="fil0" d="M9502.33 11611.12c592.33,-0.29 1264.42,187.26 1161.47,-508.31 -140.18,-249.47 -849.28,-163.84 -1258.95,-162.74 -421.65,1.38 -845.19,0.69 -1266.84,-1.27 -360.24,-1.67 -881.85,-90.86 -858.49,361.11 21.81,421.59 590.49,310.52 955.97,310.75 422.28,0.29 844.56,0.69 1266.84,0.46z"/>
  </g>
  <g id="_1633915536224">
   <path class="fil2" d="M120394.38 157332.79c129.69,-1591.74 -229.88,-3182.55 -1029.67,-4500.1 -126.43,-208.26 -227.17,-355.09 -369.91,-547.58 -123.37,-166.37 -279.46,-392.04 -401.87,-514.71 -181.81,-182.21 -283.41,-322.34 -465.5,-487.77 -90.75,-82.44 -167.43,-130.89 -247.76,-211.76 -101.91,-102.6 -134.11,-119.59 -246.79,-211.57 -1046.54,-854.33 -2512.53,-1470.81 -3945.84,-1593.62 -4306.4,-368.98 -7743.79,2818.58 -8091.51,6711.19 -99.27,1111.31 57.83,2263.75 424.65,3249.72 361.41,971.45 1070.79,2114.03 1841.98,2814.6 452.34,410.92 1005.56,861.2 1595.08,1157.4 899.8,452.1 1698.71,746.74 2833.01,857.32 4279.07,417.13 7787.98,-2842.82 8104.13,-6723.12z"/>
   <g>
    <path class="fil3" d="M112148.03 153416.64c359.42,1.09 1393.47,70.83 1634.52,-68.02l-14.6 -212.99c-251.45,-138.69 -2813.23,-64.8 -3247.69,-65.26 -1856.19,-2.19 -1717.81,605.04 -1720.3,2480.05l-1.04 2067.72c2.23,1347.69 767.11,1406.41 1756.78,1421.69 -3.74,382.91 -57.73,1439.04 51.24,1705.13 319.62,51.29 254.72,-46.29 437.78,-225.88l696.81 -625c240.64,-223.59 692.03,-840.59 1019.76,-860.96l3126.3 1.41c1143.16,-0.83 1351.01,-1224.49 878.21,-939.32 -126.48,76.33 -186.23,592.63 -878.21,592.83l-2287.74 -0.88c-868.08,-0.57 -983.43,-106.11 -1323.63,202.6 -318.37,288.91 -1174.19,1147.17 -1376.06,1275.62 -34.61,-2125.3 205.61,-1282.27 -1082.01,-1491.31 -738.07,-119.78 -676.7,-835.97 -677.17,-1407.87 -3.63,-4379.41 -464.75,-3860.21 3007.05,-3849.56z"/>
    <g>
     <path class="fil4" d="M112243.74 154630.53l839.71 -6.03 0.94 2566.93 -839.19 3.33 -1.46 -2564.23zm1186.82 130.06c1432.49,-490.57 1154.34,-1281.49 1200.64,-2182.1 938.22,-122.63 468.43,1106.07 635.7,1745.1 912.82,274.78 2110.75,-477.01 1895.99,831.29 -67.65,412.16 -126.89,801.93 -192.31,1220.85 -73.42,470.05 -38.03,858.93 -496.91,948.98 -229.26,44.95 -2583.09,45.26 -2744.74,-13.82 -402.66,-147.1 -299.57,-642.77 -299.67,-1100.56 -0.05,-483.3 -0.21,-966.65 1.3,-1449.74zm2152.79 -738.07c0,0 0,0 0,0z"/>
     <path class="fil5 str0" d="M113430.56 154760.59c-1.51,483.09 -1.35,966.44 -1.3,1449.74 0.1,457.79 -102.99,953.46 299.67,1100.56 161.65,59.08 2515.48,58.77 2744.74,13.82 458.88,-90.05 423.49,-478.93 496.91,-948.98 65.42,-418.92 124.66,-808.69 192.31,-1220.85 214.76,-1308.3 -983.17,-556.51 -1895.99,-831.29 -167.27,-639.03 302.52,-1867.73 -635.7,-1745.1 -46.3,900.61 231.85,1691.53 -1200.64,2182.1z"/>
     <polygon class="fil5 str0" points="112245.2,157194.76 113084.39,157191.43 113083.45,154624.5 112243.74,154630.53 "/>
    </g>
   </g>
  </g>
  <g id="_1633915536176">
   <path class="fil2" d="M120394.38 173966.28c129.69,-1591.74 -229.88,-3182.55 -1029.67,-4500.1 -126.43,-208.26 -227.17,-355.09 -369.91,-547.58 -123.37,-166.37 -279.46,-392.04 -401.87,-514.71 -181.81,-182.21 -283.41,-322.34 -465.5,-487.77 -90.75,-82.44 -167.43,-130.89 -247.76,-211.76 -101.91,-102.6 -134.11,-119.59 -246.79,-211.57 -1046.54,-854.33 -2512.53,-1470.81 -3945.84,-1593.62 -4306.4,-368.98 -7743.79,2818.58 -8091.51,6711.19 -99.27,1111.31 57.83,2263.75 424.65,3249.72 361.41,971.45 1070.79,2114.03 1841.98,2814.6 452.34,410.92 1005.56,861.2 1595.08,1157.4 899.8,452.1 1698.71,746.74 2833.01,857.32 4279.07,417.13 7787.98,-2842.82 8104.13,-6723.12z"/>
   <g>
    <path class="fil6 str1" d="M109624.24 171296.7c0,718.34 153.19,1329.41 694.1,1829.09 1433.27,1324.04 3899.38,454.76 3899.38,-1764.4 0,-1198.17 -1030.56,-2204.91 -2273.56,-2220.73 -1173.81,-14.93 -2319.92,923.54 -2319.92,2156.04z"/>
    <path class="fil6 str1" d="M108006.83 177248.78l0 194.09 7116.65 0c-102.95,-441.86 -64.71,-375.76 -64.71,-905.74l-2587.86 0 0 -2199.68c-1076.89,-250.9 -2555.6,211.77 -3246.05,765.14 -534.33,428.25 -1218.03,1217.27 -1218.03,2146.19z"/>
    <path class="fil6 str1" d="M115641.04 173302.29l0 1229.25 -2587.86 0 0 1488.01 2523.17 0c0,1908.17 21.52,1767.85 1405.84,435.39 840.85,-809.32 1434.33,-937.38 583.72,-1777.99 -199.9,-197.56 -351.97,-349.94 -549.76,-550.06 -147.07,-148.79 -1066.14,-1018.69 -1181.02,-1018.69 -149.06,0 -194.09,45.03 -194.09,194.09z"/>
   </g>
  </g>
 </g>
</svg>
