<?xml version="1.0" encoding="UTF-8"?>
<!DOCTYPE svg PUBLIC "-//W3C//DTD SVG 1.1//EN" "http://www.w3.org/Graphics/SVG/1.1/DTD/svg11.dtd">
<!-- Creator: CorelDRAW 2020 (64-Bit Evaluation Version) -->
<svg xmlns="http://www.w3.org/2000/svg" xml:space="preserve" width="210mm" height="297mm" version="1.1" style="shape-rendering:geometricPrecision; text-rendering:geometricPrecision; image-rendering:optimizeQuality; fill-rule:evenodd; clip-rule:evenodd"
viewBox="0 0 21000 29700"
 xmlns:xlink="http://www.w3.org/1999/xlink"
 xmlns:xodm="http://www.corel.com/coreldraw/odm/2003">
 <defs>
  <style type="text/css">
   <![CDATA[
    .str1 {stroke:#434242;stroke-width:246.94;stroke-miterlimit:22.9256}
    .str0 {stroke:#2B2A29;stroke-width:352.78;stroke-miterlimit:22.9256}
    .fil4 {fill:none}
    .fil0 {fill:#2E2E2E}
    .fil1 {fill:#62798A}
    .fil3 {fill:#EEF3F6}
    .fil2 {fill:#FBFBFB}
   ]]>
  </style>
 </defs>
 <g id="Layer_x0020_1">
  <metadata id="CorelCorpID_0Corel-Layer"/>
  <path class="fil0" d="M9359.18 9844.69c494.73,1.5 1918.06,97.49 2249.86,-93.62l-20.1 -293.18c-346.1,-190.9 -3872.31,-89.19 -4470.33,-89.83 -2554.98,-3.01 -2364.51,832.82 -2367.94,3413.7l-1.43 2846.15c3.07,1855.05 1055.91,1935.87 2418.15,1956.9 -5.15,527.06 -79.46,1980.79 70.53,2347.07 439.94,70.59 350.61,-63.73 602.59,-310.92l959.13 -860.29c331.23,-307.77 952.56,-1157.05 1403.66,-1185.08l4303.25 1.93c1573.53,-1.15 1859.63,-1685.47 1208.83,-1292.94 -174.09,105.07 -256.34,815.73 -1208.83,816.02l-3148.99 -1.22c-1194.88,-0.79 -1353.66,-146.05 -1821.93,278.87 -438.23,397.68 -1616.23,1579.04 -1894.1,1755.85 -47.64,-2925.41 283.02,-1765 -1489.35,-2052.74 -1015.93,-164.87 -931.46,-1150.68 -932.1,-1937.88 -5.01,-6028.12 -639.71,-5313.45 4139.1,-5298.79z"/>
  <g id="_1597873656992">
   <path class="fil1 str0" d="M9490.92 11515.57l1155.83 -8.3 1.29 3533.29 -1155.11 4.58 -2.01 -3529.57zm1633.61 179.02c1971.78,-675.26 1588.91,-1763.93 1652.64,-3003.58 1291.44,-168.8 644.79,1522.46 875.03,2402.06 1256.46,378.22 2905.38,-656.59 2609.77,1144.25 -93.13,567.32 -174.67,1103.83 -264.71,1680.45 -101.07,647.01 -52.36,1182.3 -683.99,1306.25 -315.56,61.87 -3555.53,62.3 -3778.04,-19.03 -554.24,-202.48 -412.34,-884.75 -412.48,-1514.88 -0.08,-665.24 -0.29,-1330.56 1.78,-1995.52zm2963.25 -1015.93c0,0 0,0 0,0z"/>
   <path class="fil2 str0" d="M11124.53 11694.59c-2.07,664.96 -1.86,1330.28 -1.78,1995.52 0.14,630.13 -141.76,1312.4 412.48,1514.88 222.51,81.33 3462.48,80.9 3778.04,19.03 631.63,-123.95 582.92,-659.24 683.99,-1306.25 90.04,-576.62 171.58,-1113.13 264.71,-1680.45 295.61,-1800.84 -1353.31,-766.03 -2609.77,-1144.25 -230.24,-879.6 416.41,-2570.86 -875.03,-2402.06 -63.73,1239.65 319.14,2328.32 -1652.64,3003.58z"/>
   <polygon class="fil2 str0" points="9492.93,15045.14 10648.04,15040.56 10646.75,11507.27 9490.92,11515.57 "/>
  </g>
  <g id="_1597873656224">
   <path class="fil3" d="M120394.38 173966.28c129.69,-1591.74 -229.88,-3182.55 -1029.67,-4500.1 -126.43,-208.26 -227.17,-355.09 -369.91,-547.58 -123.37,-166.37 -279.46,-392.04 -401.87,-514.71 -181.81,-182.21 -283.41,-322.34 -465.5,-487.77 -90.75,-82.44 -167.43,-130.89 -247.76,-211.76 -101.91,-102.6 -134.11,-119.59 -246.79,-211.57 -1046.54,-854.33 -2512.53,-1470.81 -3945.84,-1593.62 -4306.4,-368.98 -7743.79,2818.58 -8091.51,6711.19 -99.27,1111.31 57.83,2263.75 424.65,3249.72 361.41,971.45 1070.79,2114.03 1841.98,2814.6 452.34,410.92 1005.56,861.2 1595.08,1157.4 899.8,452.1 1698.71,746.74 2833.01,857.32 4279.07,417.13 7787.98,-2842.82 8104.13,-6723.12z"/>
   <g>
    <path class="fil4 str1" d="M109624.24 171296.7c0,718.34 153.19,1329.41 694.1,1829.09 1433.27,1324.04 3899.38,454.76 3899.38,-1764.4 0,-1198.17 -1030.56,-2204.91 -2273.56,-2220.73 -1173.81,-14.93 -2319.92,923.54 -2319.92,2156.04z"/>
    <path class="fil4 str1" d="M108006.83 177248.78l0 194.09 7116.65 0c-102.95,-441.86 -64.71,-375.76 -64.71,-905.74l-2587.86 0 0 -2199.68c-1076.89,-250.9 -2555.6,211.77 -3246.05,765.14 -534.33,428.25 -1218.03,1217.27 -1218.03,2146.19z"/>
    <path class="fil4 str1" d="M115641.04 173302.29l0 1229.25 -2587.86 0 0 1488.01 2523.17 0c0,1908.17 21.52,1767.85 1405.84,435.39 840.85,-809.32 1434.33,-937.38 583.72,-1777.99 -199.9,-197.56 -351.97,-349.94 -549.76,-550.06 -147.07,-148.79 -1066.14,-1018.69 -1181.02,-1018.69 -149.06,0 -194.09,45.03 -194.09,194.09z"/>
   </g>
  </g>
 </g>
</svg>
