<?xml version="1.0" encoding="UTF-8"?>
<!DOCTYPE svg PUBLIC "-//W3C//DTD SVG 1.1//EN" "http://www.w3.org/Graphics/SVG/1.1/DTD/svg11.dtd">
<!-- Creator: CorelDRAW 2020 (64-Bit Evaluation Version) -->
<svg xmlns="http://www.w3.org/2000/svg" xml:space="preserve" width="210mm" height="297mm" version="1.1" style="shape-rendering:geometricPrecision; text-rendering:geometricPrecision; image-rendering:optimizeQuality; fill-rule:evenodd; clip-rule:evenodd"
viewBox="0 0 21000 29700"
 xmlns:xlink="http://www.w3.org/1999/xlink"
 xmlns:xodm="http://www.corel.com/coreldraw/odm/2003">
 <defs>
  <style type="text/css">
   <![CDATA[
    .str0 {stroke:#2B2A29;stroke-width:246.94;stroke-miterlimit:22.9256}
    .fil0 {fill:none}
   ]]>
  </style>
 </defs>
 <g id="Layer_x0020_1">
  <metadata id="CorelCorpID_0Corel-Layer"/>
  <g id="_1598680765424">
   <path class="fil0 str0" d="M14008.82 10631.54c505.3,42.06 1012.71,166.9 1585.43,166.9l0 7092.76c-1942.88,0 -2157.47,-366.6 -3692.47,-563.17 -478.38,-61.27 -713.98,-3.45 -1147.29,-104.39 0,-806.43 3.92,-1613.85 -0.29,-2420.18 -5.7,-1095.96 -117.88,-757.7 813.88,-1689.45l2440.74 -2482.47zm-6341.77 5841.1c2282.93,-1207.97 1348.68,-1118.46 2419.9,-1835.77 0,3492.69 206.87,2512.68 -1134.97,2703.49 -1522.2,216.43 -1785.12,550.84 -3621.36,550.84l0 -7092.76c1806.31,0 2878.66,-667.57 4756.33,-667.57l0 3170.9c0,502.79 -1536.83,1301.25 -1976.27,2195.96 -152.94,311.39 -368.92,654.29 -443.63,974.91zm3087.44 -3838.44l0 -2503.33c1262.8,0 1722.64,238.53 2252.99,250.34 -78.77,295.06 -1957.24,2174.03 -2252.99,2252.99zm2920.56 -2837.1c-913.07,0 -2515.47,-942.78 -6124.34,-32.9 -1477.26,372.47 -2324.61,235.5 -2887.66,366.67 -206.99,888.49 -83.43,7939.34 -83.43,9429.2 0,805.89 3150.48,26.62 3387.3,-33.9 1628.75,-416 3300.58,-371.92 4922.21,-14.62 1626.5,358.4 1412.27,382.32 3122.35,382.32 256.51,0 333.77,-244.47 333.77,-500.67l0 -8928.56c0,-200.6 -135.19,-245.29 -250.33,-417.2l-1335.1 0c107.82,-403.84 778.01,-628.96 -83.44,-1084.77 -581.62,307.74 -845.77,834.43 -1001.33,834.43z"/>
   <path class="fil0 str0" d="M5664.39 12884.54c976.99,227.62 1969.21,-291.66 2881.52,-456.24 420.92,-75.94 816.32,19.68 1123.81,-127.87 -38.71,-353.71 66.52,-302.92 -831.29,-249.69 -822.4,48.73 -1547.8,448.65 -2178.01,494.71 -812.72,59.44 -894.1,-42.61 -996.03,339.09z"/>
   <path class="fil0 str0" d="M5664.39 12050.1c131.76,189.61 -57.54,166.87 584.12,166.87 1244.29,0 1579.76,-584.1 3421.21,-584.1 -25.39,-304.98 -8.83,-333.77 -333.77,-333.77 -1184.79,0 -1662.37,391.21 -2702.17,552.17 -485.78,75.2 -752.04,-97.82 -969.39,198.83z"/>
   <path class="fil0 str0" d="M5664.39 11382.54c41.73,74.28 54.33,166.9 166.89,166.9 1394.96,0 2159.2,-501.74 2931.4,-573.27 577.76,-53.54 862.51,190.36 907.04,-344.63 -2016.72,0 -1818.43,367.57 -3009.23,495.44 -804.34,86.34 -810.64,2.43 -996.1,255.56z"/>
   <path class="fil0 str0" d="M5664.39 13468.64c131.76,189.61 -57.54,166.9 584.12,166.9 497.24,0 1536.52,-88.43 1668.87,-584.11 -261.71,-121.05 -948.72,209.32 -1674.85,244.35 -445.24,21.48 -382.88,-93.61 -578.14,172.86z"/>
  </g>
 </g>
</svg>
