<?xml version="1.0" encoding="UTF-8"?>
<!DOCTYPE svg PUBLIC "-//W3C//DTD SVG 1.1//EN" "http://www.w3.org/Graphics/SVG/1.1/DTD/svg11.dtd">
<!-- Creator: CorelDRAW 2020 (64-Bit Evaluation Version) -->
<svg xmlns="http://www.w3.org/2000/svg" xml:space="preserve" width="210mm" height="297mm" version="1.1" style="shape-rendering:geometricPrecision; text-rendering:geometricPrecision; image-rendering:optimizeQuality; fill-rule:evenodd; clip-rule:evenodd"
viewBox="0 0 21000 29700"
 xmlns:xlink="http://www.w3.org/1999/xlink"
 xmlns:xodm="http://www.corel.com/coreldraw/odm/2003">
 <defs>
  <style type="text/css">
   <![CDATA[
    .fil0 {fill:#2B2A29}
   ]]>
  </style>
 </defs>
 <g id="Layer_x0020_1">
  <metadata id="CorelCorpID_0Corel-Layer"/>
  <g id="_1597867848544">
   <path class="fil0" d="M7732.23 13434.63c0,572.01 778.08,331.61 1073.52,213.47 536.44,-214.5 744.86,-444.13 1026.03,-592.91 20.02,74.97 352.55,422.68 437.51,523.73l656.68 734.59c131.29,129.15 203.12,335.32 448.86,335.32 214.58,0 404.73,-174.22 404.73,-379.44 0,-177.06 -352.96,-501.11 -486.7,-651.61l-445.49 -515.76c-105.06,-131.59 -342.81,-353.81 -459.09,-527.45 149.59,-100.16 259.83,-265.4 385.87,-398.31 28.6,-30.17 32.45,-40.71 57.51,-68.97 38.95,-43.9 12.26,-63.94 87.84,-63.94l4097.93 0 0 8828.25 -9283.58 0 0 -8828.25 2099.56 0c81.85,0 204.97,204.12 260.78,270.43 43.06,51.17 57.11,54.89 93.36,109.01 -17.56,65.77 -197.12,291.41 -278.46,455.13 -72.73,146.42 -176.86,340.91 -176.86,556.71zm-2175.45 -3136.68c0,678.14 866.59,216.55 1037.13,202.36 23.64,88.51 81.28,120.78 137.24,191.61l160.4 193.74c106.22,119.16 223.46,245.11 309.46,373.52l-2226.03 0 0 10371.29 10801.32 0 0 -10371.29 -4426.77 0c137.11,-285.76 68.13,-657.69 -303.55,-657.69 -586.82,0 -764.13,220.55 -1011.84,278.26l-1618.93 -1947.78 186.03 -294.58c145.13,-301.87 204.89,-717.25 -211.32,-717.25 -532.9,0 -1028.41,301.66 -1423.95,599.72 -298.9,225.24 -590,454.42 -823.68,744.67 -200.49,249.03 -585.51,668.22 -585.51,1033.42z"/>
   <path class="fil0" d="M6720.39 18089.06l0 860.06c0,58.29 17.6,75.89 75.89,75.89l7184.02 0 0 -935.95c0,-58.29 -17.61,-75.88 -75.89,-75.88l-7108.13 0c-58.29,0 -75.89,17.59 -75.89,75.88z"/>
   <path class="fil0" d="M6720.39 15433l0 860.06c0,58.28 17.6,75.88 75.89,75.88l7108.13 0c58.28,0 75.89,-17.6 75.89,-75.88l0 -935.95 -7184.02 0c-58.29,0 -75.89,17.6 -75.89,75.89z"/>
  </g>
 </g>
</svg>
